<?xml version="1.0" encoding="utf-8"?>
<!-- Generator: Adobe Illustrator 15.0.0, SVG Export Plug-In . SVG Version: 6.00 Build 0)  -->
<!DOCTYPE svg PUBLIC "-//W3C//DTD SVG 1.1//EN" "http://www.w3.org/Graphics/SVG/1.1/DTD/svg11.dtd">
<svg version="1.1" id="Grav-logo.fw-Page_x25_201" xmlns="http://www.w3.org/2000/svg" xmlns:xlink="http://www.w3.org/1999/xlink"
	 x="0px" y="0px" width="20px" height="19.979px" viewBox="82.777 83.332 20 19.979"
	 enable-background="new 82.777 83.332 20 19.979" xml:space="preserve">
<path fill="none" d="z"/>
<g id="Layer_1_1">
	<g>
		<path fill="#221E1F" d="M93.385,90.754c0.117-0.117,0.117-0.306,0-0.423c-0.117-0.117-0.307-0.117-0.423,0
			c-0.117,0.117-0.117,0.307,0,0.423C93.078,90.871,93.268,90.871,93.385,90.754z"/>
		<path fill="#221E1F" d="M92.328,90.963c-0.117,0.117-0.117,0.307,0,0.423c0.117,0.117,0.307,0.117,0.424,0
			c0.117-0.117,0.117-0.306,0-0.423C92.635,90.846,92.445,90.846,92.328,90.963z"/>
		<path fill="#221E1F" d="M94.166,91.119c-0.183-0.183-0.479-0.183-0.663,0l-0.39,0.39c-0.183,0.183-0.183,0.479,0,0.662
			l0.428,0.428c0.184,0.183,0.48,0.183,0.663,0l0.39-0.39c0.184-0.183,0.184-0.479,0-0.662L94.166,91.119z"/>
		<path fill="#221E1F" d="M97.871,89.668c0.494-0.941-0.205-1.491-0.687-1.942c-0.771-0.724-1.539-1.036-2.416-0.035
			c-0.878,1.002-0.32,2.164,0.482,2.737C96.053,91.002,97.375,90.609,97.871,89.668z M96.542,89.282
			c-0.31-0.37,0.269-1.042,0.631-0.641C97.841,89.381,96.852,89.652,96.542,89.282z"/>
		<path fill="#221E1F" d="M92.777,83.332c-5.523,0-10,4.472-10,9.989c0,5.518,4.477,9.99,10,9.99c5.522,0,10-4.473,10-9.99
			C102.777,87.804,98.3,83.332,92.777,83.332z M98.186,94.958c-1.043-0.688-1.639-1.271-2.158-2.313
			c-0.354,0.715-1.184,1.777-2.582,2.613c-0.698,2.169-4.018,6.319-5.092,5.731c-0.318-0.174-0.379-0.403-0.307-0.64
			c0.077-0.594,1.305-1.956,1.305-1.956s0.026,0.286,0.419,0.889c-0.519-1.609,0.857-3.595,1.222-4.271
			c0.573-0.183,0.614-0.917,0.614-0.917c0.037-1.135-0.471-1.958-0.963-2.449c0.354,0.431,0.468,1.083,0.485,1.679
			c0,0,0,0.002,0,0.003c0.002,0.067,0.002,0.134,0.001,0.2c-0.017,0.494-0.167,1.176-0.486,1.176l0.001,0.005
			c-0.329-0.015-0.735,0.056-1.098,0.169l-0.802,0.191c0,0,0.428-0.02,0.659,0.18c-0.257,0.419-0.83,0.938-1.467,1.233
			c-0.928,0.43-1.195-0.426-0.724-0.981c0.116-0.137,0.233-0.251,0.343-0.345c-0.071-0.073-0.116-0.172-0.128-0.297
			c0-0.001,0-0.001,0-0.002c-0.065-0.284-0.029-0.652,0.373-1.238c0.079-0.124,0.174-0.251,0.289-0.38
			c0.003-0.004,0.006-0.009,0.01-0.013c0.005-0.006,0.01-0.011,0.016-0.017c0.002-0.003,0.005-0.006,0.008-0.01
			c0.029-0.033,0.06-0.064,0.092-0.095c0.479-0.49,1.236-1,2.429-1.458c1.391-2.042,1.9-2.425,1.9-2.425
			c0.154-0.157,0.423-0.353,0.522-0.403c-0.727-1.261-0.873-3.038-0.683-3.517c-0.016,0.026-0.03,0.053-0.042,0.08
			c0.07-0.164,0.118-0.217,0.191-0.303c0.198-0.234,0.871-0.357,1.112,0.14c0.129,0.265,0.153,0.607,0.148,0.865
			c-0.532-0.028-1.015,0.58-1.015,0.58s0.441-0.208,0.988-0.212c0,0,0.146,0.127,0.328,0.365c-0.245,0.461-0.65,1.439-0.357,2.465
			c0.049,0.202,0.122,0.376,0.214,0.523c0.003,0.006,0.006,0.013,0.01,0.02c0.007,0.01,0.014,0.018,0.021,0.026
			c0.484,0.728,1.371,0.813,1.371,0.813c-0.417-0.208-0.758-0.54-0.979-0.942c-0.115-0.215-0.186-0.397-0.229-0.54
			c-0.235-0.907,0.11-1.436,0.309-1.791c0.456-0.706,1.286-1.133,2.178-1.031c1.253,0.143,2.151,1.272,2.009,2.523
			c-0.087,0.764-0.544,1.396-1.17,1.74c0.15,0.408-0.011,0.902-0.011,0.902c0.38,0.477,0.396,0.752,0.383,1.007
			c-0.482-0.081-0.951,0.244-0.951,0.244s0.931-0.222,1.472,0.26c0.352,0.378,0.586,0.72,0.727,0.972
			c0.199,0.359,1.129,0.386,1.023,1.032C100.006,95.684,99.297,95.69,98.186,94.958z"/>
	</g>
</g>
<path fill="none" d="z"/>
</svg>
